<?xml version="1.0" encoding="UTF-8" standalone="no"?>
<!-- Created with Inkscape (http://www.inkscape.org/) -->

<svg
   width="104.98145mm"
   height="104.73458mm"
   viewBox="0 0 104.98145 104.73458"
   version="1.1"
   id="svg30457"
   inkscape:version="1.2.1 (9c6d41e, 2022-07-14)"
   sodipodi:docname="logoui.svg"
   xmlns:inkscape="http://www.inkscape.org/namespaces/inkscape"
   xmlns:sodipodi="http://sodipodi.sourceforge.net/DTD/sodipodi-0.dtd"
   xmlns="http://www.w3.org/2000/svg"
   xmlns:svg="http://www.w3.org/2000/svg">
  <sodipodi:namedview
     id="namedview30459"
     pagecolor="#ffffff"
     bordercolor="#000000"
     borderopacity="0.25"
     inkscape:pageshadow="2"
     inkscape:pageopacity="0.0"
     inkscape:pagecheckerboard="0"
     inkscape:document-units="mm"
     showgrid="false"
     fit-margin-top="0"
     fit-margin-left="0"
     fit-margin-right="0"
     fit-margin-bottom="0"
     inkscape:zoom="1.2419888"
     inkscape:cx="206.5236"
     inkscape:cy="250.00225"
     inkscape:window-width="1920"
     inkscape:window-height="1020"
     inkscape:window-x="0"
     inkscape:window-y="28"
     inkscape:window-maximized="1"
     inkscape:current-layer="text56754"
     inkscape:showpageshadow="2"
     inkscape:deskcolor="#d1d1d1" />
  <defs
     id="defs30454">
    <rect
       x="210.39047"
       y="587.6319"
       width="74.738946"
       height="15.365526"
       id="rect56756" />
  </defs>
  <g
     inkscape:label="Layer 1"
     inkscape:groupmode="layer"
     id="layer1"
     transform="translate(-52.090711,-84.719856)">
    <g
       id="g30233"
       transform="translate(-31.16463,-96.292231)"
       inkscape:export-filename="logou.png"
       inkscape:export-xdpi="991.01685"
       inkscape:export-ydpi="991.01685"
       style="display:inline">
      <g
         aria-label="Service To Mankind"
         transform="matrix(0.80522975,0,0,0.76937948,-61.475052,-205.5052)"
         id="text56754"
         style="white-space:pre;shape-inside:url(#rect56756);opacity:1"
         inkscape:export-filename="logo_pathed.svg"
         inkscape:export-xdpi="991.01685"
         inkscape:export-ydpi="991.01685">
        <path
           d="m 215.19062,590.69281 q 0.528,0.624 0.528,0.744 0,0.12 -0.12,0.264 -0.564,0.636 -1.32,1.284 -0.168,0.144 -0.252,0.144 -0.12,0 -0.12,-0.18 0,-0.192 0.156,-0.504 0.168,-0.312 0.168,-0.36 0,-0.048 -0.048,-0.048 -0.036,0 -0.108,0.024 -1.38,0.492 -1.92,1.548 -0.12,0.24 -0.12,0.396 0,0.312 0.48,0.588 0.072,0.048 0.648,0.348 1.164,0.624 1.464,1.008 0.48,0.6 0.48,1.176 0,0.228 -0.132,0.48 -0.12,0.24 -0.312,0.36 -2.028,1.26 -3.612,1.26 -0.84,0 -0.84,-0.768 0,-0.252 0.168,-0.48 -0.288,-0.204 -0.288,-0.432 0,-0.24 0.324,-0.48 0.768,-0.576 2.472,-0.576 0.18,0 0.432,0.132 0.252,0.12 0.40801,0.264 0.29999,-0.168 0.29999,-0.3 0,-0.132 -0.156,-0.264 -0.228,-0.168 -0.852,-0.444 -0.612,-0.276 -0.77999,-0.372 -0.50401,-0.288 -0.78001,-0.828 -0.264,-0.54 -0.264,-1.14 0,-0.612 0.30001,-1.104 0.31199,-0.504 0.86399,-0.876 0.84,-0.564 2.1,-1.032 0.168,-0.048 0.264,-0.048 0.276,0 0.468,0.216 z m -2.28,6.648 q -0.12,-0.024 -0.276,-0.024 -0.156,0 -0.612,0.144 -0.444,0.144 -0.444,0.324 0,0.072 0.084,0.072 0.324,0 1.248,-0.516 z"
           style="font-size:12px;font-family:'Ma Shan Zheng';-inkscape-font-specification:'Ma Shan Zheng, Normal'"
           id="path614" />
        <path
           d="m 219.22261,597.38881 q 0,1.824 -1.848,1.824 -0.768,0 -1.128,-0.396 -0.348,-0.396 -0.612,-1.212 -0.096,-0.312 -0.096,-0.66 0,-0.36 0.312,-0.948 0.324,-0.6 0.708,-1.044 0.048,-0.66 0.3,-0.66 0.132,0 0.18,0.156 0.252,-0.228 0.612,-0.444 0.36,-0.216 0.648,-0.216 0.288,0 0.588,0.336 0.312,0.336 0.312,0.696 0,0.348 -0.492,0.96 -0.924,1.152 -1.452,1.152 -0.384,0 -0.6,-0.636 -0.012,0.024 -0.12,0.204 -0.096,0.168 -0.144,0.252 -0.036,0.084 -0.108,0.228 -0.12,0.276 -0.12,0.492 0,0.492 0.492,0.492 0.816,0 1.38,-0.336 0.576,-0.348 1.14,-1.044 0.048,0.528 0.048,0.804 z m -1.956,-1.452 q 0.192,0 0.564,-0.468 0.384,-0.468 0.384,-0.636 0,-0.18 -0.132,-0.18 -0.12,0 -0.432,0.312 -0.3,0.312 -0.48,0.54 -0.024,0.144 -0.024,0.216 0,0.216 0.12,0.216 z"
           style="font-size:12px;font-family:'Ma Shan Zheng';-inkscape-font-specification:'Ma Shan Zheng, Normal'"
           id="path616" />
        <path
           d="m 223.29061,596.27281 q 0.084,0 0.084,0.504 0,0.492 -0.336,0.996 -0.144,0.288 -0.468,0.672 -0.312,0.372 -0.42,0.456 -0.324,0.228 -0.528,0.228 -0.192,0 -0.288,-0.024 -0.096,-0.024 -0.192,-0.096 -0.084,-0.084 -0.144,-0.12 -0.048,-0.048 -0.132,-0.168 -0.072,-0.132 -0.096,-0.168 -0.024,-0.036 -0.108,-0.192 -0.084,-0.156 -0.084,-0.168 -0.228,-0.42 -0.228,-0.792 0,-0.384 0.06,-0.708 0.072,-0.336 0.216,-0.816 0.144,-0.48 0.18,-0.612 -0.18,0.228 -0.48,0.492 -0.12,0.096 -0.264,0.096 -0.132,0 -0.228,-0.12 -0.084,-0.132 -0.228,-0.552 -0.144,-0.42 -0.144,-0.564 0,-0.156 0.192,-0.468 0.192,-0.324 0.228,-0.432 0.06,-0.216 0.18,-0.216 0.06,0 0.288,0.132 0.228,0.12 0.3,0.48 0.024,0.144 0.108,0.144 0.036,0 0.204,-0.132 0.18,-0.132 0.384,-0.132 0.216,0 0.636,0.384 0.144,0.144 0.144,0.408 0,0.264 -0.036,0.372 -0.024,0.108 -0.06,0.144 -0.108,0.084 -0.168,0.24 -0.048,0.144 -0.324,1.128 -0.264,0.972 -0.264,1.068 0,0.096 0.072,0.096 0.096,0 0.768,-0.576 0.672,-0.576 0.972,-0.852 0.18,-0.132 0.204,-0.132 z"
           style="font-size:12px;font-family:'Ma Shan Zheng';-inkscape-font-specification:'Ma Shan Zheng, Normal'"
           id="path618" />
        <path
           d="m 223.9866,593.41681 q 0.408,0 0.84,0.408 0.228,0.216 0.228,0.42 0,0.372 -0.636,3 -0.024,0.12 -0.024,0.216 0,0.096 0.048,0.096 0.048,0 0.156,-0.108 0.384,-0.48 0.54,-0.948 0.156,-0.468 0.228,-0.684 0.072,-0.228 0.132,-0.636 0.06,-0.408 0.084,-0.576 0.036,-0.228 0.132,-1.224 0.036,-0.228 0.132,-0.228 0.108,0 0.144,0.18 0.252,1.368 0.252,2.784 0,1.416 -0.66,2.4 -0.336,0.528 -0.768,0.528 -0.18,0 -0.348,-0.096 -0.468,-0.216 -0.744,-0.78 -0.276,-0.564 -0.276,-1.128 0,-0.396 0.084,-0.708 0.096,-0.324 0.18,-0.6 0.132,-0.432 0.132,-0.54 0,-0.12 -0.228,-0.216 -0.216,-0.096 -0.288,-0.252 -0.06,-0.168 -0.18,-0.636 -0.12,-0.48 -0.12,-0.564 0,-0.084 0.084,-0.084 l 0.3,0.024 z"
           style="font-size:12px;font-family:'Ma Shan Zheng';-inkscape-font-specification:'Ma Shan Zheng, Normal'"
           id="path620" />
        <path
           d="m 228.9426,590.71681 q 0,0.396 -0.336,1.104 -0.336,0.696 -0.636,1.008 -0.048,0.072 -0.144,0.072 -0.3,0 -0.3,-0.48 0,-0.48 0.42,-1.344 0.084,-0.18 0.108,-0.372 0.024,-0.192 0.024,-0.216 0.012,-0.036 0.012,-0.048 0.012,-0.024 0.012,-0.048 0.012,-0.036 0.012,-0.048 0.012,-0.024 0.024,-0.036 0.012,-0.024 0.024,-0.036 0.036,-0.024 0.192,-0.024 0.156,0 0.372,0.132 0.216,0.132 0.216,0.336 z m 0.12,5.328 q 0.132,-0.204 0.18,-0.204 0.06,0 0.084,0.3 0.036,0.3 0.036,0.804 0,0.492 -0.24,1.068 -0.228,0.564 -0.672,0.912 -0.252,0.192 -0.468,0.192 -0.204,0 -0.348,-0.084 -0.132,-0.096 -0.24,-0.3 -0.18,-0.288 -0.36,-0.744 -0.168,-0.456 -0.168,-0.984 0,-0.528 0.084,-1.068 0.084,-0.54 0.084,-0.72 0,-0.192 -0.192,-0.48 -0.192,-0.3 -0.192,-0.36 0,-0.06 0.036,-0.12 0.048,-0.072 0.108,-0.132 0.072,-0.072 0.132,-0.12 0.072,-0.048 0.156,-0.12 0.276,-0.228 0.504,-0.228 0.228,0 0.396,0.156 0.18,0.156 0.168,0.54 0,0.384 -0.18,1.452 -0.228,1.368 -0.228,1.572 0,0.204 0.108,0.204 0.24,0 1.212,-1.536 z"
           style="font-size:12px;font-family:'Ma Shan Zheng';-inkscape-font-specification:'Ma Shan Zheng, Normal'"
           id="path622" />
        <path
           d="m 232.59059,597.02881 q 0,0.768 -0.492,1.488 -0.492,0.72 -1.248,0.72 -0.6,0 -0.96,-0.72 -0.348,-0.732 -0.348,-1.536 0,-0.816 0.432,-1.776 0.444,-0.96 1.152,-1.536 0.156,-0.144 0.396,-0.144 0.24,0 0.564,0.276 0.168,0.156 0.168,0.648 0,0.492 -0.288,1.536 -0.072,0.264 -0.192,0.264 -0.228,0 -0.348,-1.284 -0.012,-0.204 -0.024,-0.252 -0.588,0.648 -0.924,1.476 -0.324,0.816 -0.324,1.584 0,0.396 0.264,0.396 0.456,0 1.44,-0.816 0.18,-0.156 0.264,-0.228 0.084,-0.084 0.252,-0.228 0.168,-0.156 0.192,-0.18 0.024,0.108 0.024,0.312 z"
           style="font-size:12px;font-family:'Ma Shan Zheng';-inkscape-font-specification:'Ma Shan Zheng, Normal'"
           id="path624" />
        <path
           d="m 236.49058,597.38881 q 0,1.824 -1.848,1.824 -0.768,0 -1.128,-0.396 -0.348,-0.396 -0.612,-1.212 -0.096,-0.312 -0.096,-0.66 0,-0.36 0.312,-0.948 0.324,-0.6 0.708,-1.044 0.048,-0.66 0.3,-0.66 0.132,0 0.18,0.156 0.252,-0.228 0.612,-0.444 0.36,-0.216 0.648,-0.216 0.288,0 0.588,0.336 0.312,0.336 0.312,0.696 0,0.348 -0.492,0.96 -0.924,1.152 -1.452,1.152 -0.384,0 -0.6,-0.636 -0.012,0.024 -0.12,0.204 -0.096,0.168 -0.144,0.252 -0.036,0.084 -0.108,0.228 -0.12,0.276 -0.12,0.492 0,0.492 0.492,0.492 0.816,0 1.38,-0.336 0.576,-0.348 1.14,-1.044 0.048,0.528 0.048,0.804 z m -1.956,-1.452 q 0.192,0 0.564,-0.468 0.384,-0.468 0.384,-0.636 0,-0.18 -0.132,-0.18 -0.12,0 -0.432,0.312 -0.3,0.312 -0.48,0.54 -0.024,0.144 -0.024,0.216 0,0.216 0.12,0.216 z"
           style="font-size:12px;font-family:'Ma Shan Zheng';-inkscape-font-specification:'Ma Shan Zheng, Normal'"
           id="path626" />
        <path
           d="m 241.23057,596.44081 q 0,-2.256 0.72,-4.26 -0.516,-0.06 -0.624,-0.06 -0.48,0 -0.792,0.192 -0.3,0.18 -0.612,0.432 -0.456,0.384 -0.948,0.384 -0.204,0 -0.312,-0.084 -0.108,-0.096 -0.132,-0.192 -0.024,-0.096 -0.036,-0.288 -0.012,-0.192 -0.036,-0.3 -0.024,-0.108 -0.024,-0.216 0,-0.108 0.18,-0.264 1.032,-0.912 3.084,-0.912 0.396,0 0.792,0.036 l 0.096,-0.216 q 0.06,0.084 0.156,0.228 h 0.228 q 1.128,0 2.472,-0.456 0.096,-0.024 0.132,-0.024 0.192,0 0.192,0.204 0,0.204 -0.216,0.42 -1.068,1.176 -2.844,1.152 -0.3,1.164 -0.408,2.844 -0.108,1.68 -0.132,1.908 -0.024,0.228 -0.024,0.396 0,0.168 0.108,0.66 0.108,0.492 0.108,0.564 0,0.348 -0.36,0.348 -0.552,0 -1.152,-1.224 -0.12,-0.216 -0.12,-0.408 0,-0.204 0.096,-0.204 0.096,0 0.228,0.192 0.144,0.192 0.18,0.192 0.036,0 0.036,-0.096 z"
           style="font-size:12px;font-family:'Ma Shan Zheng';-inkscape-font-specification:'Ma Shan Zheng, Normal'"
           id="path628" />
        <path
           d="m 246.09054,596.14081 q 0,1.452 -0.84,2.58 -0.3,0.384 -0.672,0.384 -0.36,0 -0.576,-0.18 -0.78,-0.648 -0.78,-2.22 0,-1.092 0.588,-2.784 0.048,-0.12 0.084,-0.144 0.036,-0.036 0.12,-0.036 0.096,0 0.228,-0.12 0.132,-0.132 0.432,-0.132 0.312,0 0.624,0.228 0.312,0.228 0.456,0.612 0.336,0.9 0.336,1.812 z m -0.996,-0.78 q 0,-1.104 -0.276,-1.104 -0.132,0 -0.24,0.204 -0.48,1.14 -0.48,2.724 0,0.396 0.012,0.6 0.984,-0.756 0.984,-2.424 z"
           style="font-size:12px;font-family:'Ma Shan Zheng';-inkscape-font-specification:'Ma Shan Zheng, Normal'"
           id="path630" />
        <path
           d="m 257.25053,595.10881 q 0.06,0 0.06,0.132 0,0.132 -0.012,0.264 -0.192,2.28 -1.14,3.336 -0.312,0.348 -1.02,0.372 -0.864,-0.312 -0.864,-1.524 0,-0.216 0.048,-0.54 0.048,-0.336 0.804,-4.656 -1.056,2.136 -1.356,5.208 -0.036,0.36 -0.06,0.54 -0.048,0.384 -0.324,0.384 -0.372,0 -0.792,-0.564 -0.144,-0.192 -0.144,-0.48 0,-0.288 0.012,-0.636 0.024,-0.348 0.072,-0.768 0.048,-0.42 0.072,-0.672 0.024,-0.252 0.108,-0.768 0.096,-0.516 0.12,-0.66 0.024,-0.156 0.132,-0.768 0.12,-0.612 0.132,-0.684 -0.18,0.18 -0.324,0.54 -0.132,0.36 -0.216,0.588 -0.084,0.216 -0.168,0.528 -0.084,0.312 -0.144,0.54 -0.06,0.228 -0.144,0.552 -0.072,0.324 -0.108,0.492 -0.084,0.312 -0.276,1.164 -0.192,0.852 -0.252,1.08 -0.048,0.216 -0.084,0.36 -0.024,0.132 -0.048,0.192 -0.012,0.048 -0.06,0.144 -0.096,0.168 -0.312,0.168 -0.204,0 -0.36,-0.144 -0.144,-0.156 -0.192,-0.264 -0.048,-0.12 -0.132,-0.324 -0.072,-0.216 -0.072,-0.336 0,-0.12 0.072,-0.42 0.072,-0.3 0.168,-0.744 0.108,-0.444 0.132,-0.564 0.036,-0.132 0.12,-0.54 0.096,-0.408 0.132,-0.576 0.036,-0.168 0.108,-0.528 0.072,-0.372 0.108,-0.576 0.036,-0.216 0.096,-0.54 0.06,-0.336 0.096,-0.588 0.12,-0.792 0.144,-1.104 v -0.084 q 0,-0.216 -0.096,-0.216 -0.096,0 -0.312,0.336 -0.216,0.336 -0.3,0.516 -0.084,0.18 -0.12,0.492 -0.168,1.668 -0.864,2.712 -0.084,0.12 -0.264,0.12 -0.18,0 -0.384,-0.192 -0.192,-0.192 -0.192,-0.396 0,-1.224 0.828,-2.832 0.324,-0.612 0.528,-1.812 0.324,0.48 0.396,0.636 0.084,0.156 0.18,0.156 0.048,0 0.216,-0.144 0.168,-0.144 0.492,-0.144 0.336,0 0.54,0.168 0.204,0.168 0.252,0.384 0.06,0.216 0.084,0.648 0.072,-0.06 0.252,-0.228 0.384,-0.336 0.672,-0.336 0.3,0 0.528,0.324 0.24,0.312 0.216,0.648 0.144,-0.168 0.528,-0.828 0.276,-0.432 0.732,-0.432 0.756,0 0.756,0.684 0,0.312 -0.288,1.728 -0.288,1.416 -0.42,2.34 -0.132,0.912 -0.132,1.728 v 0.228 q 0.396,-0.336 0.768,-0.84 0.384,-0.516 0.564,-0.816 0.18,-0.312 0.564,-0.996 0.108,-0.168 0.144,-0.168 z"
           style="font-size:12px;font-family:'Ma Shan Zheng';-inkscape-font-specification:'Ma Shan Zheng, Normal'"
           id="path632" />
        <path
           d="m 260.15451,597.38881 q -0.984,1.764 -1.5,1.764 -0.372,0 -0.672,-0.456 -0.084,-0.12 -0.18,-0.372 -0.096,-0.264 -0.24,-0.48 -0.132,-0.216 -0.132,-0.576 0,-0.372 0.144,-0.66 0.984,-1.944 2.076,-2.664 0.144,-0.108 0.336,-0.108 0.192,0 0.48,0.216 0.168,0.168 0.204,0.288 0.06,0.264 0.06,0.324 0.42,0.144 0.42,0.528 0,0.264 -0.144,1.2 -0.144,0.924 -0.168,1.38 0,0.252 0.168,0.252 0.192,0 0.684,-0.672 0.504,-0.672 0.576,-0.672 0.12,0 0.12,0.396 l -0.024,0.588 q 0,0.336 -0.3,0.924 -0.3,0.576 -0.768,0.576 -0.288,0 -0.456,-0.192 -0.06,-0.06 -0.18,-0.24 -0.372,-0.54 -0.504,-1.344 z m 0.108,-2.772 q -1.512,1.38 -1.92,3.156 1.212,-1.044 1.92,-3.156 z"
           style="font-size:12px;font-family:'Ma Shan Zheng';-inkscape-font-specification:'Ma Shan Zheng, Normal'"
           id="path634" />
        <path
           d="m 266.5385,596.30881 q 0,0.588 -0.06,1.02 -0.06,0.432 -0.432,1.164 -0.372,0.72 -0.732,0.72 -0.156,0 -0.3,-0.168 -0.708,-0.852 -0.708,-1.62 0,-0.228 0.156,-1.044 0.216,-1.224 0.216,-1.356 0,-0.144 -0.048,-0.144 -0.036,0 -0.084,0.096 -0.312,0.552 -0.504,1.26 -0.192,0.696 -0.252,1.176 -0.06,0.48 -0.132,1.344 0,0.3 -0.156,0.3 -0.072,0 -0.24,-0.132 -0.648,-0.552 -0.648,-1.512 0,-0.408 0.072,-1.128 0.084,-0.72 0.096,-0.996 0.132,-1.668 0.324,-1.668 0.108,0 0.156,0.24 0.048,0.228 0.048,0.528 0,0.288 0.012,0.528 0.024,0.24 0.096,0.24 0.072,0 0.204,-0.384 0.132,-0.384 0.384,-0.768 0.264,-0.396 0.564,-0.396 0.3,0 0.528,0.132 0.516,0.264 0.516,1.104 0,0.288 -0.072,0.708 -0.072,0.42 -0.132,0.924 -0.048,0.492 -0.048,0.564 0,0.06 0.048,0.06 0.096,0 0.48,-0.48 0.396,-0.48 0.54,-0.48 0.108,0 0.108,0.168 z"
           style="font-size:12px;font-family:'Ma Shan Zheng';-inkscape-font-specification:'Ma Shan Zheng, Normal'"
           id="path636" />
        <path
           d="m 270.1625,597.91681 q 0.24,0 0.216,0.42 0,0.132 0.024,0.204 0.024,0.072 0.024,0.132 0,0.192 -0.264,0.288 -0.252,0.096 -0.564,0.096 -0.312,0 -0.66,-0.36 -0.336,-0.372 -1.212,-1.668 v 0.3 q 0,0.588 0.048,0.888 0.06,0.3 0.06,0.372 0,0.396 -0.456,0.396 -0.24,0 -0.336,-0.18 -0.084,-0.192 -0.18,-0.588 -0.096,-0.396 -0.096,-0.564 0,-0.168 0.048,-0.48 0.06,-0.324 0.072,-0.504 0.024,-0.192 0.06,-0.636 0.168,-2.64 0.744,-6.072 -0.048,-0.192 -0.048,-0.336 0,-0.156 0.12,-0.156 0.12,0 0.264,0.168 0.204,0.204 0.324,0.6 0.12,0.396 0.12,0.636 0,0.24 -0.06,0.588 -0.048,0.336 -0.168,1.008 -0.264,1.476 -0.36,2.268 0.024,-0.024 0.168,-0.156 0.144,-0.144 0.18,-0.18 0.036,-0.036 0.168,-0.144 0.132,-0.12 0.192,-0.156 0.072,-0.036 0.192,-0.108 0.132,-0.084 0.228,-0.108 0.228,-0.084 0.456,-0.084 0.528,0 0.792,0.384 0.264,0.384 0.264,0.948 0,0.384 -0.108,0.588 -0.108,0.192 -0.168,0.3 -0.06,0.096 -0.204,0.216 l -0.216,0.18 q -0.156,0.132 -0.6,0.348 -0.444,0.216 -0.516,0.264 -0.06,0.036 -0.06,0.084 0,0.036 0.06,0.096 0.6,0.6 1.32,0.696 z m -0.552,-3.108 q -0.696,0.312 -1.308,1.008 0.708,-0.216 1.308,-1.008 z"
           style="font-size:12px;font-family:'Ma Shan Zheng';-inkscape-font-specification:'Ma Shan Zheng, Normal'"
           id="path638" />
        <path
           d="m 273.10249,590.71681 q 0,0.396 -0.336,1.104 -0.336,0.696 -0.636,1.008 -0.048,0.072 -0.144,0.072 -0.3,0 -0.3,-0.48 0,-0.48 0.42,-1.344 0.084,-0.18 0.108,-0.372 0.024,-0.192 0.024,-0.216 0.012,-0.036 0.012,-0.048 0.012,-0.024 0.012,-0.048 0.012,-0.036 0.012,-0.048 0.012,-0.024 0.024,-0.036 0.012,-0.024 0.024,-0.036 0.036,-0.024 0.192,-0.024 0.156,0 0.372,0.132 0.216,0.132 0.216,0.336 z m 0.12,5.328 q 0.132,-0.204 0.18,-0.204 0.06,0 0.084,0.3 0.036,0.3 0.036,0.804 0,0.492 -0.24,1.068 -0.228,0.564 -0.672,0.912 -0.252,0.192 -0.468,0.192 -0.204,0 -0.348,-0.084 -0.132,-0.096 -0.24,-0.3 -0.18,-0.288 -0.36,-0.744 -0.168,-0.456 -0.168,-0.984 0,-0.528 0.084,-1.068 0.084,-0.54 0.084,-0.72 0,-0.192 -0.192,-0.48 -0.192,-0.3 -0.192,-0.36 0,-0.06 0.036,-0.12 0.048,-0.072 0.108,-0.132 0.072,-0.072 0.132,-0.12 0.072,-0.048 0.156,-0.12 0.276,-0.228 0.504,-0.228 0.228,0 0.396,0.156 0.18,0.156 0.168,0.54 0,0.384 -0.18,1.452 -0.228,1.368 -0.228,1.572 0,0.204 0.108,0.204 0.24,0 1.212,-1.536 z"
           style="font-size:12px;font-family:'Ma Shan Zheng';-inkscape-font-specification:'Ma Shan Zheng, Normal'"
           id="path640" />
        <path
           d="m 277.73448,596.30881 q 0,0.588 -0.06,1.02 -0.06,0.432 -0.432,1.164 -0.372,0.72 -0.732,0.72 -0.156,0 -0.3,-0.168 -0.708,-0.852 -0.708,-1.62 0,-0.228 0.156,-1.044 0.216,-1.224 0.216,-1.356 0,-0.144 -0.048,-0.144 -0.036,0 -0.084,0.096 -0.312,0.552 -0.504,1.26 -0.192,0.696 -0.252,1.176 -0.06,0.48 -0.132,1.344 0,0.3 -0.156,0.3 -0.072,0 -0.24,-0.132 -0.648,-0.552 -0.648,-1.512 0,-0.408 0.072,-1.128 0.084,-0.72 0.096,-0.996 0.132,-1.668 0.324,-1.668 0.108,0 0.156,0.24 0.048,0.228 0.048,0.528 0,0.288 0.012,0.528 0.024,0.24 0.096,0.24 0.072,0 0.204,-0.384 0.132,-0.384 0.384,-0.768 0.264,-0.396 0.564,-0.396 0.3,0 0.528,0.132 0.516,0.264 0.516,1.104 0,0.288 -0.072,0.708 -0.072,0.42 -0.132,0.924 -0.048,0.492 -0.048,0.564 0,0.06 0.048,0.06 0.096,0 0.48,-0.48 0.396,-0.48 0.54,-0.48 0.108,0 0.108,0.168 z"
           style="font-size:12px;font-family:'Ma Shan Zheng';-inkscape-font-specification:'Ma Shan Zheng, Normal'"
           id="path642" />
        <path
           d="m 282.35448,597.89281 q 0,0.66 -0.348,0.66 -0.276,0 -0.48,-0.288 -0.204,-0.288 -0.312,-0.516 -0.108,-0.24 -0.216,-0.444 -0.108,-0.216 -0.192,-0.504 -0.012,0.036 -0.072,0.252 l -0.096,0.324 q -0.144,0.528 -0.228,0.708 -0.072,0.168 -0.168,0.384 -0.084,0.204 -0.18,0.336 -0.096,0.12 -0.204,0.24 -0.216,0.252 -0.528,0.252 -0.3,0 -0.588,-0.348 -0.492,-0.576 -0.72,-1.44 -0.108,-0.36 -0.108,-0.828 0,-0.468 0.288,-1.032 0.288,-0.576 0.864,-1.26 0.576,-0.684 1.068,-0.684 0.264,0 0.6,0.252 0.072,-0.648 0.24,-1.836 0.168,-1.188 0.204,-1.548 0.036,-0.372 0.252,-0.372 0.228,0 0.324,0.24 0.108,0.228 0.108,0.456 0,0.228 -0.036,0.42 -0.336,3.432 -0.336,5.58 0,0.324 0.18,0.324 0.18,0 0.384,-0.276 0.216,-0.288 0.276,-0.288 0.072,0 0.072,0.096 l -0.084,0.516 z m -1.932,-2.916 q 0,-0.144 -0.144,-0.144 -0.132,0 -0.324,0.12 -0.624,0.348 -1.032,1.08 -0.396,0.732 -0.396,1.464 0,0.444 0.276,0.444 0.108,0 0.24,-0.132 0.672,-0.708 1.332,-2.616 0.048,-0.12 0.048,-0.216 z"
           style="font-size:12px;font-family:'Ma Shan Zheng';-inkscape-font-specification:'Ma Shan Zheng, Normal'"
           id="path644" />
      </g>
      <g
         aria-label="LOVE ALL SERVE ALL"
         transform="matrix(1.1339108,0,0,0.88190359,0.53953881,-0.3801108)"
         id="text14263"
         style="font-weight:800;font-size:4.23333px;font-family:'Alegreya Sans SC';-inkscape-font-specification:'Alegreya Sans SC, Ultra-Bold';white-space:pre;inline-size:50.6592;fill:#040404;stroke-width:0.305478">
        <path
           d="m 103.53845,297.52955 -0.0466,0.51223 h -1.5367 l 0.0381,-0.80857 -0.0381,-1.92193 h 0.6985 l -0.0381,1.8542 0.0127,0.31327 h 0.86783 z"
           id="path647" />
        <path
           d="m 104.84654,295.26895 q 0.5842,0 0.9017,0.35136 0.3175,0.34714 0.3175,0.9906 0,0.70274 -0.34714,1.0922 -0.34713,0.38524 -0.9779,0.38524 -0.57996,0 -0.89746,-0.3556 -0.3175,-0.35984 -0.3175,-1.016 0,-0.69427 0.3429,-1.07104 0.34713,-0.37676 0.9779,-0.37676 z m -0.0593,0.55033 q -0.19897,0 -0.3175,0.0804 -0.11853,0.0762 -0.17357,0.254 -0.055,0.17357 -0.055,0.47414 0,0.35983 0.055,0.56726 0.055,0.2032 0.17357,0.2921 0.12277,0.0889 0.3302,0.0889 0.2032,0 0.32173,-0.0762 0.11854,-0.0804 0.16934,-0.25823 0.055,-0.1778 0.055,-0.48683 0,-0.3556 -0.055,-0.5588 -0.055,-0.2032 -0.17357,-0.28787 -0.11853,-0.0889 -0.3302,-0.0889 z"
           id="path649" />
        <path
           d="m 107.70826,298.04178 h -0.8255 l -0.8001,-2.7305 h 0.6985 l 0.072,0.39793 0.43603,1.70604 h 0.0423 l 0.508,-1.66794 0.0762,-0.43603 h 0.67309 z"
           id="path651" />
        <path
           d="m 110.66735,297.48298 0.0381,0.0508 -0.0423,0.508 h -1.8034 l 0.0381,-0.80857 -0.0381,-1.92193 h 1.8288 l 0.0381,0.0508 -0.0466,0.508 -0.66463,-0.0254 -0.46567,0.004 -0.008,0.5461 h 0.4445 l 0.4445,-0.0127 0.0381,0.0508 -0.0423,0.508 -0.48683,-0.0127 h -0.41063 l -0.004,0.23707 0.008,0.33867 0.44873,0.004 z"
           id="path653" />
        <path
           d="m 113.91854,298.04178 h -0.6985 l -0.072,-0.3937 -0.0381,-0.15663 -0.49107,-0.008 -0.42333,0.0127 -0.0339,0.11007 -0.0762,0.43603 h -0.6731 l 0.88053,-2.7305 h 0.8255 z m -0.9398,-1.0668 -0.2667,-1.03717 h -0.0423 l -0.3175,1.03717 0.31327,0.008 z"
           id="path655" />
        <path
           d="m 115.83623,297.52955 -0.0466,0.51223 h -1.5367 l 0.0381,-0.80857 -0.0381,-1.92193 h 0.6985 l -0.0381,1.8542 0.0127,0.31327 h 0.86783 z"
           id="path657" />
        <path
           d="m 117.70313,297.52955 -0.0466,0.51223 h -1.53669 l 0.0381,-0.80857 -0.0381,-1.92193 h 0.69849 l -0.0381,1.8542 0.0127,0.31327 h 0.86784 z"
           id="path659" />
        <path
           d="m 119.56156,295.26895 q 0.36406,0 0.73659,0.14393 l -0.11006,0.57573 -0.1016,0.0381 q -0.16087,-0.10583 -0.32173,-0.1651 -0.16087,-0.0593 -0.2794,-0.0593 -0.1397,0 -0.22437,0.072 -0.0804,0.0677 -0.0804,0.16087 0,0.10583 0.1016,0.18203 0.10583,0.072 0.3302,0.17357 0.23706,0.11007 0.381,0.2032 0.14816,0.0889 0.25399,0.2413 0.11007,0.1524 0.11007,0.37253 0,0.24554 -0.13547,0.4445 -0.13123,0.19897 -0.37676,0.3175 -0.24553,0.1143 -0.56727,0.1143 -0.42756,0 -0.84666,-0.16933 l 0.0974,-0.61383 0.072,-0.0423 q 0.1778,0.14817 0.38523,0.23284 0.21167,0.0804 0.36407,0.0804 0.16087,0 0.2413,-0.072 0.0847,-0.072 0.0847,-0.16933 0,-0.1143 -0.10584,-0.1905 -0.10583,-0.0762 -0.3302,-0.1778 -0.2286,-0.10583 -0.37676,-0.19473 -0.14394,-0.0931 -0.24977,-0.24554 -0.10583,-0.1524 -0.10583,-0.37253 0,-0.24977 0.13123,-0.44873 0.13547,-0.2032 0.37253,-0.3175 0.2413,-0.1143 0.55034,-0.1143 z"
           id="path661" />
        <path
           d="m 122.58415,297.48298 0.0381,0.0508 -0.0423,0.508 h -1.8034 l 0.0381,-0.80857 -0.0381,-1.92193 h 1.8288 l 0.0381,0.0508 -0.0466,0.508 -0.66464,-0.0254 -0.46566,0.004 -0.008,0.5461 h 0.4445 l 0.4445,-0.0127 0.0381,0.0508 -0.0423,0.508 -0.48684,-0.0127 h -0.41063 l -0.004,0.23707 0.008,0.33867 0.44874,0.004 z"
           id="path663" />
        <path
           d="m 124.57381,296.96228 q 0.35137,0.5461 0.635,0.91863 l -0.008,0.0762 q -0.32173,0.10584 -0.68156,0.13124 l -0.0677,-0.055 q -0.254,-0.47413 -0.44026,-0.86783 h -0.35984 l 0.0254,0.8763 h -0.69003 l 0.0381,-0.80857 -0.0381,-1.92193 1.15147,-0.004 q 0.4445,0 0.68156,0.2159 0.2413,0.21166 0.2413,0.6096 0,0.24976 -0.127,0.46566 -0.127,0.2159 -0.35983,0.36407 z m -0.91017,-0.31327 0.3683,0.0169 q 0.15664,-0.0593 0.2286,-0.17357 0.0762,-0.1143 0.0762,-0.29633 0,-0.19897 -0.10583,-0.2921 -0.1016,-0.0974 -0.32173,-0.10584 l -0.2286,0.0127 z"
           id="path665" />
        <path
           d="m 126.82593,298.04178 h -0.8255 l -0.8001,-2.7305 h 0.6985 l 0.072,0.39793 0.43604,1.70604 h 0.0423 l 0.508,-1.66794 0.0762,-0.43603 h 0.6731 z"
           id="path667" />
        <path
           d="m 129.78502,297.48298 0.0381,0.0508 -0.0423,0.508 h -1.80339 l 0.0381,-0.80857 -0.0381,-1.92193 h 1.82879 l 0.0381,0.0508 -0.0466,0.508 -0.66463,-0.0254 -0.46567,0.004 -0.008,0.5461 h 0.4445 l 0.4445,-0.0127 0.0381,0.0508 -0.0423,0.508 -0.48683,-0.0127 h -0.41064 l -0.004,0.23707 0.008,0.33867 0.44873,0.004 z"
           id="path669" />
        <path
           d="m 133.03621,298.04178 h -0.6985 l -0.072,-0.3937 -0.0381,-0.15663 -0.49107,-0.008 -0.42333,0.0127 -0.0339,0.11007 -0.0762,0.43603 h -0.6731 l 0.88054,-2.7305 h 0.8255 z m -0.9398,-1.0668 -0.2667,-1.03717 h -0.0423 l -0.3175,1.03717 0.31327,0.008 z"
           id="path671" />
        <path
           d="m 134.9539,297.52955 -0.0466,0.51223 h -1.5367 l 0.0381,-0.80857 -0.0381,-1.92193 h 0.6985 l -0.0381,1.8542 0.0127,0.31327 h 0.86783 z"
           id="path673" />
        <path
           d="m 136.82079,297.52955 -0.0466,0.51223 h -1.5367 l 0.0381,-0.80857 -0.0381,-1.92193 h 0.6985 l -0.0381,1.8542 0.0127,0.31327 h 0.86783 z"
           id="path675" />
      </g>
    </g>
    <g
       id="g51978"
       transform="matrix(1.3220991,0,0,1.2357318,-236.85918,37.49615)"
       inkscape:export-filename="/media/pranay/Main Storage/Graphic Designing/stm/inkspace/g30233.png"
       inkscape:export-xdpi="991.01685"
       inkscape:export-ydpi="991.01685">
      <path
         style="display:inline;opacity:0.697679;fill:#50c4eb;fill-opacity:1;stroke-width:0.446866"
         d="m 246.01144,83.162756 24.9665,0.58617 c 0,0 5.00605,1.03951 -0.0734,1.09258 -5.0794,0.0531 -4.0327,-0.0246 -4.0327,-0.0246 0,0 -1.016,0.45119 0.21355,0.59026 1.22953,0.13902 1.22953,0.13902 1.22953,0.13902 l 2.75978,0.20788 c 0,0 1.00467,0.19934 0.11452,0.4206 -0.89012,0.22123 -0.89012,0.22123 -0.89012,0.22123 l -6.89961,0.26036 c 0,0 -2.16334,0.70021 0.01,0.73961 2.17375,0.0393 2.17375,0.0393 2.17375,0.0393 l 7.06473,0.4319 c 0,0 1.62574,0.41868 0.0882,0.58849 -1.53754,0.16989 -1.53754,0.16101 -1.53754,0.16101 l -6.70997,0.0101 c 0,0 -0.78794,0.4572 0.0551,0.58126 0.84304,0.12409 0.84304,0.12409 0.84304,0.12409 l 2.83005,0.31945 c 0,0 1.22191,0.59965 0.0195,0.6677 -1.20236,0.068 -16.07443,-0.067 -16.07443,-0.067 0,0 -0.97131,-0.66714 0.0673,-0.80149 1.03857,-0.13438 4.15714,-0.11985 4.15714,-0.11985 0,0 0.52194,-0.72844 -0.26258,-0.78372 -0.78453,-0.0553 -9.36714,-0.50526 -9.36714,-0.50526 0,0 -1.30208,-0.50528 0.51607,-0.76594 1.81817,-0.26064 5.31723,-0.61807 5.31723,-0.61807 0,0 0.39295,-0.7098 -0.70575,-0.61031 -1.09871,0.0995 -1.09871,0.0995 -1.09871,0.0995 l -7.06584,-0.0381 c 0,0 -1.58718,-0.61478 0.43942,-0.7547 2.0266,-0.13982 2.0266,-0.13982 2.0266,-0.13982 l 3.48429,-0.22227 c 0,0 0.63559,-0.31217 -0.0353,-0.44463 -0.67089,-0.13256 -0.66704,-0.13256 -0.66704,-0.13256 l -4.29986,-0.17836 c 0,0 -1.10141,-0.81577 1.34316,-1.07395 z"
         id="path16182" />
      <g
         id="g13920"
         style="display:inline;fill:#272063;fill-opacity:1"
         transform="translate(-52.711244,-92.552017)">
        <path
           d="m 296.89666,174.74204 c 0,-0.88194 0.0882,-1.05833 0.52917,-1.05833 0.4966,0 0.52916,-0.17639 0.52916,-2.86632 0,-2.95721 -0.10708,-3.41461 -0.68678,-2.9335 -0.25497,0.2116 -0.43669,0.0913 -0.73577,-0.48704 l -0.39717,-0.76804 7.79906,-4.95792 c 4.28949,-2.72685 7.89154,-4.91974 8.00456,-4.87308 0.11302,0.0467 3.38139,2.27561 7.26305,4.9532 l 7.05756,4.86834 -0.52622,0.85143 c -0.43361,0.7016 -0.5262,1.31818 -0.5262,3.50388 0,2.06254 0.0846,2.6849 0.38038,2.7984 0.24225,0.093 0.34495,0.41549 0.28281,0.8882 -0.0537,0.40824 -0.10578,0.83154 -0.11581,0.94069 -0.01,0.10913 -6.50712,0.19842 -14.43801,0.19842 h -14.41979 z m 22.17206,-2.55879 c -0.11393,-2.15408 -0.74081,-2.2464 -0.74081,-0.10909 0,1.27735 0.0846,1.60955 0.41007,1.60955 0.33151,0 0.39488,-0.28751 0.33074,-1.50046 z m 1.37586,-0.087 c 0,-1.23473 -0.0882,-1.5875 -0.39688,-1.5875 -0.30868,0 -0.39687,0.35277 -0.39687,1.5875 0,1.23472 0.0882,1.5875 0.39687,1.5875 0.30867,0 0.39688,-0.35278 0.39688,-1.5875 z m 1.3229,0 c 0,-1.23473 -0.0882,-1.5875 -0.39687,-1.5875 -0.30867,0 -0.39688,0.35277 -0.39688,1.5875 0,1.23472 0.0882,1.5875 0.39688,1.5875 0.30869,0 0.39687,-0.35278 0.39687,-1.5875 z m 1.32293,-0.022 c 0,-2.13731 -0.62689,-2.04499 -0.74082,0.10909 -0.0641,1.21295 -7.9e-4,1.50045 0.33074,1.50045 0.32544,0 0.41008,-0.33219 0.41008,-1.60954 z m 1.5875,0.003 c 0,-1.38756 -0.0632,-1.59487 -0.46302,-1.51878 -0.36525,0.0695 -0.47978,0.40885 -0.54237,1.6069 -0.0721,1.38052 -0.03,1.51878 0.46301,1.51878 0.48724,0 0.54238,-0.16335 0.54238,-1.6069 z m -22.00816,-1.24007 c 0.0688,-0.48195 -0.0424,-0.59262 -0.59531,-0.59262 -0.48287,0 -0.67986,0.14055 -0.67986,0.48507 0,1.02553 1.1306,1.12088 1.27517,0.10754 z m 1.63524,0.0688 c 0,-0.48507 -0.14112,-0.66146 -0.52916,-0.66146 -0.38806,0 -0.52917,0.17639 -0.52917,0.66146 0,0.48507 0.14111,0.66146 0.52917,0.66146 0.38804,0 0.52916,-0.17639 0.52916,-0.66146 z m 5.02709,0 c 0,-0.48507 -0.14111,-0.66146 -0.52917,-0.66146 -0.38806,0 -0.52917,0.17639 -0.52917,0.66146 0,0.48507 0.14111,0.66146 0.52917,0.66146 0.38806,0 0.52917,-0.17639 0.52917,-0.66146 z m 1.80434,-0.0688 c 0.0688,-0.48194 -0.0424,-0.59261 -0.59532,-0.59261 -0.48287,0 -0.67986,0.14055 -0.67986,0.48507 0,1.02553 1.1306,1.12088 1.27518,0.10754 z m 3.22274,0.0688 c 0,-0.48507 -0.14111,-0.66146 -0.52917,-0.66146 -0.51623,0 -0.74754,0.75176 -0.35277,1.14653 0.40165,0.40166 0.88194,0.1375 0.88194,-0.48507 z m 1.85207,0 c 0,-0.48507 -0.14111,-0.66146 -0.52915,-0.66146 -0.38806,0 -0.52917,0.17639 -0.52917,0.66146 0,0.48507 0.14111,0.66146 0.52917,0.66146 0.38804,0 0.52915,-0.17639 0.52915,-0.66146 z m 8.4558,-2.18281 -0.0109,-1.25677 -3.09295,-2.11667 c -1.70112,-1.16417 -3.18452,-2.15635 -3.29642,-2.20486 -0.11191,-0.0485 -0.20347,1.46954 -0.20347,3.37344 v 3.46163 h 3.30729 3.30729 l -0.0109,-1.25677 z m -21.99932,0.39384 c 0.0656,-0.34071 -0.088,-0.45999 -0.59227,-0.45999 -0.64683,0 -0.91106,0.47536 -0.49534,0.89109 0.31859,0.31859 0.99486,0.0505 1.08761,-0.4311 z m 1.63728,0.0692 c 0,-0.35278 -0.17639,-0.52917 -0.52916,-0.52917 -0.35278,0 -0.52917,0.17639 -0.52917,0.52917 0,0.35278 0.17639,0.52917 0.52917,0.52917 0.35277,0 0.52916,-0.17639 0.52916,-0.52917 z m 5.02709,0 c 0,-0.35278 -0.17639,-0.52917 -0.52917,-0.52917 -0.35279,0 -0.52917,0.17639 -0.52917,0.52917 0,0.35278 0.17638,0.52917 0.52917,0.52917 0.35278,0 0.52917,-0.17639 0.52917,-0.52917 z m 1.8023,-0.0692 c 0.0656,-0.34071 -0.088,-0.45999 -0.59228,-0.45999 -0.64682,0 -0.91106,0.47536 -0.49532,0.89109 0.31859,0.31859 0.99484,0.0505 1.0876,-0.4311 z m 3.22478,0.0692 c 0,-0.35278 -0.17639,-0.52917 -0.52917,-0.52917 -0.35277,0 -0.52916,0.17639 -0.52916,0.52917 0,0.35278 0.17639,0.52917 0.52916,0.52917 0.35278,0 0.52917,-0.17639 0.52917,-0.52917 z m 1.85207,0 c 0,-0.35278 -0.17639,-0.52917 -0.52915,-0.52917 -0.35278,0 -0.52917,0.17639 -0.52917,0.52917 0,0.35278 0.17639,0.52917 0.52917,0.52917 0.35276,0 0.52915,-0.17639 0.52915,-0.52917 z m -13.49374,-1.85208 c 0,-0.38806 -0.17638,-0.52917 -0.66146,-0.52917 -0.48506,0 -0.66145,0.14111 -0.66145,0.52917 0,0.38805 0.17639,0.52916 0.66145,0.52916 0.48508,0 0.66146,-0.14111 0.66146,-0.52916 z m 1.5875,0 c 0,-0.35278 -0.17639,-0.52917 -0.52916,-0.52917 -0.35278,0 -0.52917,0.17639 -0.52917,0.52917 0,0.35277 0.17639,0.52916 0.52917,0.52916 0.35277,0 0.52916,-0.17639 0.52916,-0.52916 z m 5.02709,0 c 0,-0.35278 -0.17639,-0.52917 -0.52917,-0.52917 -0.35279,0 -0.52917,0.17639 -0.52917,0.52917 0,0.35277 0.17638,0.52916 0.52917,0.52916 0.35278,0 0.52917,-0.17639 0.52917,-0.52916 z m 1.5875,0 c 0,-0.35278 -0.17639,-0.52917 -0.52917,-0.52917 -0.35279,0 -0.52917,0.17639 -0.52917,0.52917 0,0.35277 0.17638,0.52916 0.52917,0.52916 0.35278,0 0.52917,-0.17639 0.52917,-0.52916 z m 3.43958,0 c 0,-0.35278 -0.17639,-0.52917 -0.52917,-0.52917 -0.35277,0 -0.52916,0.17639 -0.52916,0.52917 0,0.35277 0.17639,0.52916 0.52916,0.52916 0.35278,0 0.52917,-0.17639 0.52917,-0.52916 z m 1.85207,0 c 0,-0.35278 -0.17639,-0.52917 -0.52915,-0.52917 -0.35278,0 -0.52917,0.17639 -0.52917,0.52917 0,0.35277 0.17639,0.52916 0.52917,0.52916 0.35276,0 0.52915,-0.17639 0.52915,-0.52916 z m -4.54565,-4.1699 c 0.0688,-0.48194 -0.0424,-0.5926 -0.59531,-0.5926 -0.48287,0 -0.67986,0.14055 -0.67986,0.48506 0,1.02554 1.1306,1.12088 1.27517,0.10754 z m 1.76754,0.0652 c 0,-0.34357 -0.20614,-0.55482 -0.59531,-0.61009 -0.43842,-0.0623 -0.59532,0.0481 -0.59532,0.41892 0,0.27691 0.0835,0.58697 0.18554,0.68901 0.35098,0.35098 1.00509,0.027 1.00509,-0.49784 z m -1.71979,-1.59218 c 0,-0.22285 -0.1866,-0.47678 -0.41466,-0.5643 -0.49761,-0.19095 -1.04026,0.27727 -0.79022,0.68184 0.26954,0.43612 1.20488,0.34487 1.20488,-0.11754 z m 1.67325,0.0342 c 0.17841,-0.46493 -0.0348,-0.68732 -0.65902,-0.68732 -0.30869,0 -0.48507,0.19242 -0.48507,0.52916 0,0.61634 0.91949,0.74345 1.14409,0.15816 z m -1.67325,-1.87795 c 0,-0.47837 -0.14216,-0.66146 -0.51355,-0.66146 -0.28246,0 -0.59067,0.12477 -0.68491,0.27726 -0.28344,0.45859 0.0877,1.04566 0.66099,1.04566 0.39691,0 0.53747,-0.17298 0.53747,-0.66146 z m 1.65876,0.33073 c 0.18953,-0.54335 -0.0949,-0.99219 -0.62874,-0.99219 -0.35786,0 -0.50086,0.18885 -0.50086,0.66146 0,0.47548 0.14258,0.66146 0.50712,0.66146 0.27892,0 0.55903,-0.14883 0.62248,-0.33073 z"
           style="display:inline;fill:#272063;fill-opacity:1;stroke-width:0.0700042"
           id="path12890"
           sodipodi:nodetypes="ssssscssscsssssscssssssssssssssssssssssssssssssssssssssssssssssssssssccssscccccsssssssssssssssssssssssssssssssssssssssssssssssssssssssssssssssssssssssssssssssssssss" />
      </g>
      <path
         d="m 254.745,59.18171 c -0.50932,-0.27298 -0.73087,-0.49652 -0.49233,-0.49674 0.23854,-2.3e-4 0.71479,0.23375 1.05833,0.51995 0.75679,0.63047 0.64507,0.62589 -0.566,-0.0232 z m 2.49797,-0.0857 c 0.28247,-0.22631 0.69919,-0.40208 0.92604,-0.39059 0.35629,0.0181 0.35841,0.0409 0.0156,0.16805 -0.21828,0.0809 -0.635,0.2567 -0.92604,0.39058 -0.5207,0.23953 -0.52095,0.23684 -0.0156,-0.16804 z m 4.3812,-1.86668 c -0.3638,-0.20797 -0.53539,-0.38235 -0.3813,-0.3875 0.15409,-0.005 0.51128,0.16543 0.79375,0.37908 0.65325,0.4941 0.4446,0.49835 -0.41245,0.008 z m 1.85208,0.25173 c 0,-0.19406 1.61978,-0.94659 1.8578,-0.86312 0.12893,0.0452 -0.23633,0.28174 -0.81169,0.52559 -0.57535,0.24386 -1.04611,0.39574 -1.04611,0.33753 z m 0.14308,3.70628 c 0.35646,-0.34061 0.92801,-0.58373 1.33586,-0.56823 0.66218,0.0252 0.65096,0.0417 -0.15787,0.23338 -0.4789,0.11347 -1.08005,0.36917 -1.33588,0.56823 -0.25582,0.19906 -0.18479,0.094 0.15789,-0.23338 z m -1.97488,0.17003 c -0.16114,-0.16114 -0.69097,-0.38708 -1.1774,-0.50208 -0.7916,-0.18716 -0.81113,-0.21194 -0.18611,-0.23618 0.38405,-0.0149 0.97936,0.20708 1.32292,0.49328 0.34354,0.2862 0.55914,0.52432 0.4791,0.52917 -0.08,0.005 -0.27736,-0.12305 -0.43851,-0.28419 z"
         style="display:inline;fill:#272063;fill-opacity:1;stroke-width:0.0185219"
         id="path13949" />
      <path
         d="m 241.08827,82.441816 c -0.30091,-2.29215 0.18512,-11.51466 0.76571,-14.52918 0.10452,-0.54271 0.0135,-0.74349 -0.39594,-0.87344 -0.32468,-0.10305 -0.47439,-0.31796 -0.38456,-0.55208 0.17782,-0.46338 -0.31067,-0.49265 -1.47104,-0.0882 -0.46571,0.16236 -0.89883,0.2431 -0.96249,0.17943 -0.20809,-0.20808 1.57889,-1.86694 2.37275,-2.20261 l 0.77477,-0.32761 -1.03936,-0.548 c -0.57164,-0.3014 -0.89054,-0.55326 -0.70862,-0.55969 0.18189,-0.006 0.33072,-0.12516 0.33072,-0.26383 0,-0.30827 -1.69329,-0.80122 -2.77812,-0.80876 -0.97819,-0.007 -0.509,-0.3858 0.99219,-0.80145 0.5457,-0.15109 0.99218,-0.37804 0.99218,-0.50433 0,-0.40908 1.16512,0.0309 2.18282,0.82434 1.14402,0.8919 1.18459,0.84008 0.45763,-0.58486 -0.52177,-1.02278 -0.4195,-1.36686 0.21705,-0.73029 0.24695,0.24693 0.3175,0.18094 0.3175,-0.29699 0,-1.29056 1.28558,0.73972 1.70658,2.69516 0.15423,0.71634 0.17331,0.72312 0.93209,0.33074 0.90665,-0.46885 3.89754,-0.56973 3.09756,-0.10448 -0.46316,0.26936 -0.46336,0.29326 -0.005,0.6281 0.42502,0.31079 0.34224,0.36815 -0.7726,0.53533 -1.24923,0.18733 -1.49806,0.65714 -0.34804,0.65714 0.70649,0 2.07974,0.98702 1.86243,1.33862 -0.0809,0.13086 -0.0363,0.44876 0.0991,0.70644 0.13536,0.25766 0.32728,1.00426 0.42647,1.65911 l 0.18039,1.19062 -0.43098,-0.79375 c -0.85916,-1.58238 -2.51416,-2.86862 -2.51416,-1.95393 0,0.18117 -0.25163,0.13013 -0.65216,-0.13231 -0.35867,-0.23501 -0.71586,-0.4273 -0.79375,-0.4273 -0.0779,0 -0.14697,0.62508 -0.15352,1.38906 -0.0119,1.3857 -0.71394,3.62081 -0.76034,2.42073 -0.0531,-1.37272 -1.07982,-3.05244 -1.07982,-1.76654 0,0.35567 -0.10166,0.3121 -0.46302,-0.19844 l -0.46301,-0.65419 -0.17526,1.32292 c -0.0964,0.72761 -0.18047,2.93026 -0.18682,4.89479 -0.0105,3.25583 0.073,4.37485 0.64685,8.66511 l 0.18581,1.38906 h -0.9269 c -0.89096,0 -0.93265,-0.0436 -1.07455,-1.12448 z"
         style="display:inline;fill:#23941e;fill-opacity:1;stroke-width:0.0185219"
         id="path13928" />
      <path
         d="m 273.97489,82.496407 c 0.69099,-4.82853 0.89821,-10.97323 0.46625,-13.82448 l -0.18037,-1.19063 -0.46146,0.65419 c -0.35991,0.51018 -0.46148,0.55386 -0.46148,0.19844 0,-1.24808 -0.77118,-0.022 -1.12784,1.79321 -0.17227,0.87678 -0.78322,-1.68408 -0.67429,-2.82637 0.10705,-1.12274 -0.0339,-1.20615 -0.98531,-0.5828 -0.40053,0.26244 -0.65215,0.31349 -0.65215,0.13231 0,-0.92016 -1.62597,0.36146 -2.47896,1.95394 l -0.42516,0.79375 0.16542,-1.19062 c 0.091,-0.65485 0.26816,-1.39116 0.39373,-1.63626 0.31795,-0.6206 0.28503,-0.80891 -0.10242,-0.58566 -0.1819,0.10481 -0.0434,-0.12485 0.30768,-0.51035 0.35116,-0.38551 1.18457,-0.85852 1.85209,-1.05114 l 1.21367,-0.35021 -1.42132,-0.19555 c -1.25555,-0.17274 -1.36618,-0.23588 -0.94837,-0.54137 0.45177,-0.33034 0.45027,-0.35898 -0.0339,-0.64002 -0.8305,-0.48207 2.14418,-0.3896 3.08292,0.0958 0.61836,0.31976 0.80606,0.33383 0.88268,0.0662 0.0535,-0.18699 0.2313,-0.83443 0.39505,-1.43876 0.16375,-0.60432 0.53057,-1.37823 0.81515,-1.71979 l 0.51745,-0.62102 0.009,0.60141 c 0.009,0.59326 0.0188,0.59505 0.73641,0.13229 l 0.72761,-0.46912 -0.40661,0.66146 c -0.22363,0.3638 -0.5542,1.00137 -0.73457,1.41682 l -0.328,0.75536 0.99917,-0.7822 c 0.99161,-0.77628 2.65986,-1.40735 2.33627,-0.88376 -0.0893,0.14456 0.28763,0.38742 0.83773,0.5397 1.50831,0.41752 1.98032,0.79676 1.00018,0.80359 -1.08485,0.008 -2.77813,0.5005 -2.77813,0.80876 0,0.13868 0.14883,0.25741 0.33073,0.26384 0.1819,0.006 -0.14327,0.26152 -0.7226,0.56686 -1.01481,0.53485 -1.03079,0.56349 -0.43739,0.78301 0.77706,0.28745 1.77094,1.06461 2.42517,1.89634 l 0.50618,0.64349 -0.98491,-0.35159 c -1.33567,-0.4768 -2.00549,-0.47366 -1.82044,0.009 0.0902,0.23492 -0.0612,0.44944 -0.391,0.5541 -0.41865,0.13288 -0.50152,0.31648 -0.37333,0.82726 0.66064,2.63211 1.1888,12.79231 0.77306,14.87098 -0.14753,0.73764 -0.26556,0.82682 -1.09429,0.82682 h -0.92893 l 0.17984,-1.25677 z"
         style="display:inline;fill:#1e941c;fill-opacity:1;stroke-width:0.0185219"
         id="path13970" />
    </g>
    <path
       style="display:inline;fill:#272063;fill-opacity:1;stroke-width:0.264583"
       d="m 94.820013,189.06557 c -0.87313,-0.19316 -1.94469,-0.49093 -2.38125,-0.66169 l -0.79375,-0.31047 0.79375,-0.64129 c 1.22202,-0.98729 4.83503,-2.66924 6.74737,-3.14108 0.945607,-0.23332 2.612257,-0.52428 3.703667,-0.64658 1.52204,-0.17056 1.70946,-0.23037 0.80442,-0.25669 -0.64898,-0.0189 -2.71872,-0.22237 -4.599437,-0.45221 -3.81753,-0.46651 -5.97983,-0.26992 -7.92049,0.72013 -1.81581,0.92637 -3.41855,1.27942 -5.82148,1.28239 -3.26707,0.004 -6.12422,-1.03518 -8.64603,-3.14474 l -0.9153,-0.76568 1.0476,-0.29485 c 3.3803,-0.95142 7.65951,-1.01519 10.94761,-0.16316 1.83416,0.47528 2.50739,0.37943 0.89948,-0.12806 -0.55545,-0.17531 -2.49819,-1.03882 -4.3172,-1.91891 l -3.30729,-1.60016 -3.83646,-0.0516 c -4.62126,-0.0622 -5.4093,-0.19721 -7.82986,-1.34148 -1.410167,-0.66663 -2.298158,-1.3383 -3.571878,-2.70177 -0.932329,-0.99802 -1.921391,-2.21204 -2.197916,-2.69782 l -0.502773,-0.88324 1.774755,0.16573 c 3.742068,0.34944 6.678012,1.37306 10.004062,3.48794 l 1.92673,1.22512 -1.5875,-1.38163 c -0.87312,-0.7599 -2.45394,-2.27128 -3.51293,-3.35862 -2.08338,-2.13916 -3.802693,-3.13481 -6.691056,-3.87477 -4.174879,-1.06956 -7.434944,-3.90595 -8.972316,-7.80629 -0.742394,-1.88348 -1.077798,-3.45479 -0.737439,-3.45479 0.148851,0 1.346896,0.56555 2.662324,1.25677 2.723448,1.4311 5.725739,4.07145 7.603264,6.68663 1.315158,1.83186 2.256472,2.98266 1.942968,2.37535 -0.112682,-0.21828 -0.583127,-0.93265 -1.045434,-1.5875 -1.142827,-1.61878 -2.829529,-4.65133 -3.709144,-6.66874 -0.875065,-2.00698 -2.320458,-3.60754 -4.532326,-5.0189 -2.972029,-1.89642 -5.196236,-4.97132 -5.861229,-8.10299 -0.315719,-1.48682 -0.408974,-5.40993 -0.135108,-5.68379 0.572662,-0.57266 4.093803,3.43767 5.615022,6.39511 0.569678,1.10753 1.241297,2.64648 1.492485,3.41989 0.609552,1.87681 0.771366,1.59582 0.292202,-0.50742 -0.212077,-0.93089 -0.530211,-2.94269 -0.706964,-4.47066 -0.355502,-3.0732 -1.164012,-5.0919 -2.808157,-7.01146 -1.717042,-2.00466 -2.994311,-5.49162 -2.984961,-8.14896 0.0074,-2.09065 1.446231,-6.8 2.077645,-6.8 0.352438,0 2.083067,3.94374 2.668129,6.0801 0.420732,1.53631 0.551455,2.86812 0.584325,5.95313 0.02329,2.18574 0.08228,3.55735 0.131086,3.04802 0.330263,-3.44634 0.733424,-6.27653 1.187234,-8.33437 0.60497,-2.74329 0.508632,-4.63862 -0.363108,-7.14375 -0.838493,-2.40959 -0.946736,-6.2128 -0.242783,-8.53041 0.530644,-1.74703 2.46661,-4.88721 3.682595,-5.97326 0.531615,-0.4748 0.541851,-0.46402 0.828574,0.87292 0.720651,3.36028 0.131515,8.71021 -1.336238,12.13434 -0.87026,2.03023 -0.365403,1.45786 0.708115,-0.80281 0.564684,-1.18915 1.611443,-3.12282 2.326131,-4.29706 1.442528,-2.37008 2.319619,-5.15883 2.111204,-6.71268 -0.212405,-1.5836 0.58452,-5.15768 1.560307,-6.997711 0.480653,-0.90636 1.544443,-2.30976 2.363973,-3.11865 1.44657,-1.42779 4.72765,-3.46372 4.72765,-2.93354 0,0.14454 -0.17358,1.088 -0.38574,2.09658 -0.7688,3.65474 -2.13977,6.513121 -4.56214,9.511761 -0.49961,0.61846 -0.82998,1.12448 -0.73417,1.12448 0.0958,0 0.62713,-0.50602 1.1807,-1.12448 0.55357,-0.61847 2.09556,-2.01745 3.42666,-3.10886 2.60744,-2.13793 3.60097,-3.531661 4.673,-6.555351 1.73626,-4.89717 5.53358,-7.967 11.01992,-8.90874 1.21331,-0.20826 1.23003,-0.0438 0.17712,1.74192 -1.93062,3.27434 -3.91323,5.34355 -7.18857,7.50258 -0.83675,0.55157 -1.52136,1.03821 -1.52136,1.08143 0,0.0432 1.22039,-0.49796 2.71198,-1.20263 1.49159,-0.70468 3.50605,-1.54363 4.47657,-1.86434 1.85208,-0.61202 1.57741,-0.38156 6.47726,-5.43458 2.69021,-2.7743 5.989687,-4.00721 10.048097,-3.75464 3.15137,0.19612 3.34219,0.38645 1.77525,1.77065 -2.78316,2.45858 -5.29772,3.79564 -9.217287,4.90105 -1.30968,0.36937 -1.95984,0.61066 -1.44478,0.5362 1.9379,-0.28013 6.261827,-0.64806 7.693357,-0.65464 1.65273,-0.008 3.67574,-0.72042 5.46676,-1.92628 3.03327,-2.04224 6.33769,-2.86229 9.37593,-2.3268 1.8738,0.33025 6.02853,1.99238 6.02853,2.41176 0,0.4249 -4.4481,1.91196 -6.91031,2.31022 -2.28605,0.36977 -2.87765,0.37099 -5.82083,0.012 -1.80189,-0.21979 -3.31997,-0.3657 -3.37352,-0.32425 -0.10654,0.0824 -0.13188,0.0771 4.06612,0.86228 1.60072,0.2994 3.80338,0.84284 4.89479,1.20763 2.1265,0.71076 5.18629,0.90519 6.4835,0.41199 2.81671,-1.07091 6.92794,-0.83553 9.86166,0.5646 1.80827,0.86301 5.37992,3.98913 4.9962,4.37298 -0.35241,0.35253 -6.24328,0.23087 -7.84761,-0.16208 -0.80037,-0.19603 -2.4041,-0.75529 -3.56384,-1.24281 -1.15975,-0.48752 -2.16019,-0.8864 -2.22319,-0.8864 -0.063,0 0.94541,0.66239 2.24093,1.47198 1.29551,0.80959 3.01759,1.982621 3.82684,2.606741 1.62683,1.25465 4.3511,2.27128 6.08639,2.27128 1.42629,0 3.98393,0.66939 5.75278,1.50562 2.44349,1.15517 5.33497,4.53538 6.33109,7.40119 l 0.29094,0.83701 -1.85055,-0.51281 c -4.06762,-1.1272 -6.49734,-2.57814 -10.12558,-6.04665 l -2.36231,-2.25832 2.31415,2.64584 c 1.27279,1.45521 2.97599,3.6187 3.7849,4.80775 1.60249,2.35558 2.95988,3.45604 5.90162,4.78458 4.55458,2.05692 7.21283,5.88537 7.8069,11.24361 0.0928,0.83674 0.0708,1.52135 -0.0489,1.52135 -0.11966,0 -1.23077,-0.76043 -2.46914,-1.68983 -2.54678,-1.9114 -4.06286,-3.67021 -5.88419,-6.82629 -1.16601,-2.02053 -1.73228,-2.69767 -0.88802,-1.06189 0.47139,0.91333 1.57386,4.19838 2.13164,6.35168 0.50183,1.9373 1.53459,3.47385 4.06894,6.05386 2.00953,2.04572 3.27376,4.27499 3.76523,6.6394 0.35919,1.72801 0.19585,4.89335 -0.34433,6.67265 l -0.36146,1.19063 -1.27935,-1.71979 c -2.43644,-3.27523 -3.86892,-7.18792 -4.31057,-11.77396 -0.13852,-1.43836 -0.18545,-0.12413 -0.14644,4.10104 0.0628,6.80183 0.22714,7.85959 1.6032,10.31875 2.22799,3.98165 2.29331,8.48781 0.18413,12.70253 -0.3284,0.65623 -0.83142,1.48253 -1.11782,1.83622 l -0.52073,0.64307 -0.29852,-0.5578 c -0.47968,-0.89628 -1.10202,-3.48669 -1.35069,-5.62204 -0.20553,-1.76491 -0.0724,-4.3401 0.36958,-7.1499 0.0801,-0.50932 -0.0965,-0.15213 -0.39242,0.79375 -0.29595,0.94589 -1.07104,3.08902 -1.72242,4.7625 -1.30312,3.34789 -1.39258,4.16238 -0.86098,7.83907 0.67802,4.6894 -0.65013,8.3786 -4.24765,11.7988 l -2.02038,1.92079 -0.0793,-1.83007 c -0.16772,-3.87096 0.92537,-7.66377 3.38373,-11.74087 0.72918,-1.20931 1.32578,-2.26682 1.32578,-2.35003 0,-0.0832 -0.80367,1.04859 -1.78594,2.51509 -0.98226,1.4665 -2.59776,3.60058 -3.58999,4.74239 -1.93518,2.22692 -2.91762,4.19885 -3.23248,6.48815 -0.44204,3.21399 -1.87108,5.93699 -4.26306,8.12312 -1.44773,1.32315 -4.10441,2.78364 -5.61199,3.08515 l -0.80615,0.16123 0.65497,-1.80575 c 0.66699,-1.83888 1.89833,-4.20639 2.80811,-5.39915 0.27748,-0.3638 1.48143,-1.65648 2.67542,-2.87262 l 2.1709,-2.21117 -1.92484,1.42603 c -1.05866,0.78432 -2.97033,2.01554 -4.24815,2.73606 -2.52755,1.4252 -4.02834,2.97549 -5.29381,5.46843 -0.92443,1.82108 -3.5268,4.46136 -5.26365,5.34031 -0.76154,0.38539 -2.06648,0.87831 -2.89986,1.09538 -1.66764,0.43436 -5.10823,0.53634 -5.10823,0.15141 0,-0.28851 2.39729,-2.9683 3.67869,-4.11219 1.31021,-1.16961 2.40162,-1.87485 4.71559,-3.04709 1.13122,-0.57307 1.96926,-1.04694 1.86232,-1.05304 -0.10694,-0.006 -1.17851,0.27221 -2.38125,0.61847 -1.20275,0.34626 -3.07453,0.78643 -4.15952,0.97815 -2.26698,0.40059 -3.92856,1.29861 -6.26337,3.3851 -3.34559,2.98977 -7.288407,4.03616 -11.607667,3.08057 z m 12.109717,-5.6011 c -0.17913,-0.0725 -0.53632,-0.0769 -0.79375,-0.01 -0.25743,0.0671 -0.11087,0.12638 0.32569,0.13177 0.43657,0.005 0.64719,-0.0495 0.46806,-0.12197 z m -14.694917,-1.83838 c -0.0879,-0.0879 -0.31612,-0.0973 -0.50712,-0.0209 -0.21106,0.0845 -0.14837,0.14716 0.15986,0.15985 0.27891,0.0115 0.43518,-0.051 0.34726,-0.13896 z m -1.25126,-0.36932 c -0.21828,-0.14106 -0.57547,-0.24993 -0.79375,-0.24193 -0.26169,0.01 -0.21662,0.092 0.13229,0.24193 0.72737,0.31256 1.14511,0.31256 0.66146,0 z m 11.509367,-0.10255 c -3.027517,-0.73721 -5.231417,-2.45958 -6.598017,-5.15645 -0.97241,-1.91894 -0.93993,-1.98273 0.90338,-1.77418 3.358117,0.37993 5.982297,1.6534 9.070427,4.40176 2.01103,1.78977 4.16848,2.74323 5.65462,2.49901 3.16118,-0.5195 9.03542,-2.13058 8.76271,-2.40329 -0.0637,-0.0637 -0.64037,0.071 -1.28153,0.2992 -1.53232,0.54546 -5.05317,0.55723 -6.52647,0.0218 -2.23868,-0.81358 -5.28083,-3.42594 -4.52998,-3.88999 0.73608,-0.45492 3.83687,-0.83799 5.62236,-0.69458 1.84861,0.14848 4.41014,0.90505 6.78188,2.00309 0.7333,0.3395 1.73981,0.55345 2.62041,0.55703 1.58782,0.006 3.246,-0.77923 6.82678,-3.23468 2.20932,-1.515 3.19194,-2.5043 1.28826,-1.29702 -2.98681,1.89418 -6.46828,2.15564 -9.61097,0.7218 -0.90951,-0.41496 -1.65365,-0.84865 -1.65365,-0.96376 0,-0.32197 2.88325,-1.98705 4.36563,-2.52116 1.03454,-0.37274 2.22043,-0.48587 5.44026,-0.51894 5.6745,-0.0583 6.27008,-0.27248 8.6497,-3.11086 1.95194,-2.32826 3.30965,-4.18217 4.29931,-5.87061 0.83138,-1.41839 0.49376,-1.08368 -0.86732,0.85987 -1.88633,2.69356 -4.16727,4.27696 -6.76759,4.69795 -1.56021,0.25261 -4.53665,-0.0798 -4.53665,-0.5067 0,-0.60301 2.8252,-3.44949 4.30582,-4.33826 1.27368,-0.76453 4.83908,-2.09845 6.80668,-2.54656 0.3638,-0.0829 1.21955,-0.56312 1.90167,-1.06725 1.38165,-1.02114 1.84579,-1.89319 3.24395,-6.09488 1.02843,-3.09057 1.50409,-5.32404 0.58634,-2.75311 -1.45818,4.08482 -4.03384,6.28168 -8.17936,6.97643 -1.30276,0.21834 -1.29721,-0.11843 0.0475,-2.88108 1.1775,-2.41915 2.77806,-4.14952 5.85047,-6.32495 1.069,-0.75691 2.36133,-1.95769 2.87183,-2.66841 l 0.9282,-1.29221 0.0938,-3.86271 c 0.0516,-2.12449 -0.0108,-4.57708 -0.13854,-5.45021 -0.2262,-1.54566 -0.23276,-1.51777 -0.24895,1.05834 -0.0216,3.44461 -0.63489,5.15154 -2.5588,7.12212 -1.14115,1.16884 -3.14933,2.53517 -3.7261,2.53517 -0.3012,0 -0.12449,-3.39886 0.25184,-4.84365 0.51539,-1.97873 1.33056,-3.55363 3.15433,-6.09414 0.93853,-1.30737 1.64435,-2.63283 1.90911,-3.58511 0.40167,-1.44475 0.39444,-1.60294 -0.16524,-3.6143 -0.64256,-2.30922 -2.11368,-6.29686 -2.26662,-6.14392 -0.053,0.053 0.0863,0.68619 0.30969,1.407 0.27413,0.88463 0.37165,1.99851 0.30005,3.42724 -0.12065,2.40743 -0.85148,4.15404 -2.50313,5.98222 l -0.96526,1.06842 -0.32521,-0.6207 c -0.17887,-0.34138 -0.52196,-1.57059 -0.76242,-2.73157 -0.51781,-2.50011 -0.38124,-4.22211 0.59649,-7.52081 0.36891,-1.24464 0.72038,-3.10595 0.78105,-4.13624 0.11,-1.86788 0.10672,-1.87855 -1.13798,-3.70417 -1.39819,-2.05077 -4.13447,-5.39614 -5.37932,-6.57676 -1.25641,-1.19158 -0.97425,-0.68927 0.5175,0.92127 0.7353,0.79384 1.71756,2.21474 2.18282,3.15757 0.75644,1.53289 0.84458,1.95272 0.83323,3.96875 -0.01,1.70945 -0.16022,2.6279 -0.62294,3.79891 l -0.61025,1.54438 -0.7525,-0.72094 c -2.01742,-1.93281 -3.39679,-6.1698 -3.41634,-10.49397 -0.0108,-2.39239 -0.72127,-4.51803 -1.81436,-5.42851 -1.27313,-1.06045 -4.37887,-3.139531 -6.00008,-4.016641 -1.66039,-0.89831 -1.53921,-0.72639 0.48674,0.69057 2.46391,1.723271 3.87888,4.603211 3.87888,7.894811 0,1.50923 -0.0867,1.97445 -0.36777,1.97445 -0.67359,0 -3.48776,-2.28841 -4.4853,-3.64733 -1.05257,-1.43389 -2.55675,-4.50841 -3.09563,-6.327431 -0.19107,-0.64498 -0.8406,-1.65585 -1.54806,-2.40927 -1.16031,-1.2357 -1.36504,-1.33744 -4.26157,-2.11776 -1.67349,-0.45084 -3.51896,-0.88594 -4.10104,-0.96689 -1.03084,-0.14337 -1.02305,-0.1346 0.30008,0.33746 3.58146,1.27778 5.91601,3.78491 6.67663,7.170221 0.22831,1.01611 0.20712,1.08183 -0.34884,1.08183 -0.94279,0 -3.56465,-0.99 -4.91261,-1.85498 -1.26045,-0.808831 -3.80907,-3.331351 -5.09989,-5.047651 -0.39277,-0.52224 -1.2963,-1.26638 -2.00785,-1.65365 -1.19402,-0.64987 -1.52544,-0.70262 -4.30062,-0.68452 -1.6538,0.0108 -3.542687,0.11495 -4.197527,0.23147 l -1.19063,0.21185 0.97917,0.0331 c 1.494877,0.0506 3.667727,0.56898 4.812217,1.14815 1.22414,0.61947 3.37637,2.70956 3.96777,3.8532 l 0.42157,0.81524 -1.48091,0.18503 c -3.03954,0.379761 -6.19937,-0.53954 -10.022727,-2.91594 -1.1973,-0.74418 -2.41817,-1.26194 -3.45329,-1.46451 -1.55034,-0.3034 -1.67662,-0.28422 -3.97588,0.60375 -2.28948,0.8842 -6.19687,2.73808 -6.19687,2.94014 0,0.054 0.72792,-0.19581 1.61761,-0.55517 2.30301,-0.93023 4.96186,-1.08478 6.89347,-0.4007 1.60409,0.5681 3.92433,2.02616 3.92433,2.466101 0,0.40568 -2.16985,1.27879 -4.3074,1.73321 -2.03634,0.4329 -4.55435,0.24048 -7.8573,-0.60043 -1.49455,-0.3805 -3.63455,-0.27094 -4.63634,0.23737 -1.55384,0.78843 -8.30506,7.18643 -7.95381,7.53768 0.0475,0.0475 0.77597,-0.6366 1.61881,-1.52023 2.77507,-2.90937 6.11751,-3.97335 9.644,-3.0699 0.94235,0.24141 1.81133,0.53691 1.93108,0.65666 0.32507,0.32507 -1.85563,2.28578 -3.55016,3.19202 -1.76092,0.94174 -3.74775,1.4745 -6.94655,1.86268 -3.1865,0.38668 -4.56298,1.11066 -5.881448,3.09344 -1.096839,1.64948 -3.817724,6.9192 -3.797627,7.35512 0.0067,0.14552 0.353141,-0.39545 0.769848,-1.20216 1.843557,-3.56896 4.689824,-5.51697 8.409767,-5.7557 2.31638,-0.14865 2.35318,-0.0512 0.84992,2.24943 -1.51115,2.31274 -3.33964,3.84366 -6.435143,5.38786 -2.744837,1.36928 -5.022921,3.2307 -5.27881,4.31331 -1.108612,4.69032 -1.676995,9.36768 -0.741205,6.09954 0.592871,-2.07052 1.332209,-3.24511 2.968794,-4.71654 1.129593,-1.0156 3.616333,-2.2747 4.492573,-2.2747 0.636408,0 -0.715268,4.6132 -1.899327,6.48229 -0.460934,0.72761 -1.786965,2.29592 -2.946735,3.48513 -1.246189,1.27783 -2.361969,2.70893 -2.727952,3.49887 -0.578391,1.24839 -0.602959,1.4944 -0.372099,3.72583 0.255952,2.47394 1.179064,7.11388 1.470117,7.38938 0.09124,0.0864 0.06269,-0.25968 -0.06345,-0.769 -0.12614,-0.50932 -0.229345,-1.94081 -0.229345,-3.18109 0,-2.01389 0.09282,-2.44354 0.867985,-4.01765 0.792545,-1.60941 3.120136,-4.17834 3.785798,-4.17834 0.419136,0 0.638243,1.41952 0.612587,3.96875 -0.02747,2.72951 -0.429289,4.10241 -2.284428,7.80521 -0.533745,1.06533 -1.004205,2.47604 -1.107513,3.32095 -0.158063,1.29273 -0.08139,1.68777 0.6394,3.29427 0.982466,2.18973 3.41995,6.30398 4.388689,7.40769 l 0.696684,0.79375 -0.705343,-0.99366 c -2.997324,-4.22258 -3.276181,-8.68625 -0.778445,-12.46058 l 0.697222,-1.05358 0.627383,1.03621 c 0.783403,1.29388 1.598783,3.7857 1.823543,5.57277 0.0942,0.74886 0.0184,2.5348 -0.16846,3.96875 -0.62259,4.77827 -0.36406,5.80972 2.09454,8.35639 1.65721,1.71657 5.40458,4.84763 6.3604,5.31435 0.24289,0.1186 0.0844,-0.0513 -0.35212,-0.37767 -3.09202,-2.31119 -4.92227,-5.22607 -5.11453,-8.14545 -0.11181,-1.69769 0.3428,-4.52482 0.7276,-4.52482 0.38185,0 3.0963,3.03444 3.78691,4.23334 0.77995,1.35398 1.56832,3.81671 2.04255,6.38059 0.17807,0.96272 0.6728,2.36154 1.0994,3.10849 0.67887,1.18865 1.03884,1.49043 2.88511,2.41872 2.06288,1.03719 5.9071,2.65021 6.28766,2.63827 0.10535,-0.003 -0.57795,-0.42062 -1.51845,-0.92737 -2.1382,-1.15208 -3.55481,-2.51968 -4.37744,-4.226 -0.66577,-1.38095 -1.40565,-4.76593 -1.107,-5.06458 0.31043,-0.31044 3.54653,1.4758 4.93451,2.72371 1.4938,1.34307 3.34205,3.80289 4.24388,5.64817 0.32948,0.67416 1.15385,1.6497 1.90047,2.24895 1.51104,1.2128 3.34182,1.65079 6.963487,1.66594 l 2.11667,0.009 -1.32292,-0.32213 z m 17.85938,-0.42621 c 0.21828,-0.14107 0.27781,-0.25648 0.13229,-0.25648 -0.14552,0 -0.44317,0.11541 -0.66146,0.25648 -0.21828,0.14106 -0.27781,0.25648 -0.13229,0.25648 0.14552,0 0.44318,-0.11542 0.66146,-0.25648 z m 1.5875,-0.52917 c 0.35278,-0.22798 0.35278,-0.25648 0,-0.25648 -0.21828,0 -0.57547,0.11541 -0.79375,0.25648 -0.35278,0.22798 -0.35278,0.25648 0,0.25648 0.21828,0 0.57547,-0.11542 0.79375,-0.25648 z m -29.765617,-0.52917 c -0.29105,-0.12506 -0.70776,-0.22739 -0.92605,-0.22739 -0.25015,0 -0.20125,0.0841 0.1323,0.22739 0.29104,0.12507 0.70776,0.22739 0.92604,0.22739 0.25016,0 0.20125,-0.0841 -0.13229,-0.22739 z m 29.236447,-1.32291 c 0.21829,-0.14107 0.27782,-0.25648 0.1323,-0.25648 -0.14553,0 -0.44318,0.11541 -0.66146,0.25648 -0.21828,0.14106 -0.27782,0.25648 -0.13229,0.25648 0.14552,0 0.44317,-0.11542 0.66145,-0.25648 z m -42.619957,-2.9961 c -0.0606,-0.0471 -0.52696,-0.3557 -1.03629,-0.68572 l -0.92604,-0.60004 0.74236,0.68572 c 0.4083,0.37715 0.87462,0.68572 1.03629,0.68572 0.16166,0 0.24431,-0.0386 0.18368,-0.0857 z m 56.369977,-3.42005 c 0.0137,-0.32583 -0.13142,-0.23434 -0.80546,0.50792 l -0.64143,0.70636 0.71929,-0.50792 c 0.39561,-0.27936 0.72303,-0.59722 0.7276,-0.70636 z m -1.84377,-0.8599 c 0.34178,-0.3638 0.56188,-0.66145 0.48912,-0.66145 -0.0728,0 -0.41192,0.29765 -0.7537,0.66145 -0.34177,0.36381 -0.56188,0.66146 -0.48912,0.66146 0.0728,0 0.41193,-0.29765 0.7537,-0.66146 z M 60.44387,150.14513 c -0.208606,-0.56938 -0.387673,-0.90417 -0.397927,-0.74399 -0.02591,0.40478 0.548592,2.00784 0.674459,1.88197 0.05651,-0.0565 -0.06793,-0.5686 -0.276532,-1.13798 z m 1.996979,-0.0232 c -0.311903,-0.53636 -0.387222,-0.36468 -0.131904,0.30066 0.09074,0.23646 0.220714,0.37419 0.288836,0.30607 0.06812,-0.0681 -0.0025,-0.34115 -0.156932,-0.60673 z m 87.499811,-3.92244 c -0.006,-0.4254 -0.0493,-0.39945 -0.21961,0.13229 -0.28972,0.90466 -0.28972,1.60026 0,0.92604 0.12507,-0.29104 0.22389,-0.76729 0.21961,-1.05833 z m -1.89095,-0.44649 c -0.0845,-0.21106 -0.14716,-0.14837 -0.15985,0.15986 -0.0115,0.27891 0.051,0.43518 0.13896,0.34726 0.0879,-0.0879 0.0973,-0.31612 0.0209,-0.50712 z M 60.474268,135.02083 c -0.06655,-0.25466 -0.121001,-0.0463 -0.121001,0.46302 0,0.50933 0.05445,0.71769 0.121001,0.46302 0.06655,-0.25466 0.06655,-0.67138 0,-0.92604 z m 2.992616,-13.4276 c 0,-0.21828 -0.04679,-0.39688 -0.103985,-0.39688 -0.05719,0 -0.172517,0.1786 -0.256279,0.39688 -0.08376,0.21828 -0.03697,0.39687 0.103984,0.39687 0.140954,0 0.25628,-0.17859 0.25628,-0.39687 z m -1.610148,-1.32292 c 0.008,-0.14552 -0.100872,-0.086 -0.241936,0.13229 -0.141064,0.21828 -0.249935,0.57547 -0.241935,0.79375 0.01536,0.41906 0.45632,-0.42486 0.483871,-0.92604 z m 82.870064,-1.79035 c -0.26131,-0.25936 -0.2917,-0.22897 -0.14811,0.14812 0.0994,0.26093 0.2473,0.40778 0.32876,0.32632 0.0815,-0.0815 1.7e-4,-0.29496 -0.18065,-0.47444 z m -0.51349,-1.0451 c -0.18986,-0.18986 -0.31309,-0.20548 -0.31309,-0.0397 0,0.35316 0.3129,0.66606 0.48948,0.48948 0.0752,-0.0752 -0.004,-0.27759 -0.17639,-0.44979 z m 2.02834,-0.20774 c -0.15228,-0.43683 -0.38421,-0.86058 -0.5154,-0.94166 -0.33027,-0.20412 -0.30181,-0.0597 0.17772,0.90149 0.52645,1.05529 0.6987,1.07578 0.33768,0.0402 z m -76.540407,-9.85525 0.7771,-0.85989 -0.85989,0.7771 c -0.80155,0.72437 -0.981519,0.94269 -0.777113,0.94269 0.0455,0 0.43249,-0.38695 0.859903,-0.8599 z m 12.43435,-8.018241 c 0.48426,-0.38798 0.47582,-0.39349 -0.14787,-0.0965 -0.8099,0.38571 -0.96,0.50792 -0.62384,0.50792 0.14197,0 0.48923,-0.18516 0.77171,-0.41147 z m -0.92848,-1.5797 c 0.42933,-0.22202 0.78061,-0.4632 0.78061,-0.53596 0,-0.1185 -1.55777,0.59737 -1.83004,0.84099 -0.26753,0.23938 0.33575,0.064 1.04943,-0.30503 z m 43.356477,0.0426 c -0.0606,-0.053 -0.4079,-0.23822 -0.77171,-0.41148 -0.62369,-0.29703 -0.63213,-0.29152 -0.14786,0.0965 0.42148,0.33767 1.28266,0.63269 0.91957,0.31502 z m 1.34496,-1.35197 c 0,-0.16047 -1.49242,-0.93644 -1.7728,-0.92174 -0.11636,0.006 0.20514,0.23923 0.71447,0.51807 1.04284,0.57094 1.05833,0.57685 1.05833,0.40367 z m -30.096347,-2.43098 c -0.1819,-0.0734 -0.47956,-0.0734 -0.66146,0 -0.1819,0.0734 -0.0331,0.13345 0.33073,0.13345 0.3638,0 0.51263,-0.0601 0.33073,-0.13345 z m 1.32291,-0.26458 c -0.1819,-0.0734 -0.47955,-0.0734 -0.66145,0 -0.18191,0.0734 -0.0331,0.13345 0.33072,0.13345 0.3638,0 0.51263,-0.06 0.33073,-0.13345 z m 13.692187,-0.19162 c 0,-0.0562 -0.3509,-0.15376 -0.77978,-0.21671 -0.42887,-0.0629 -0.7195,-0.0169 -0.64584,0.10227 0.1311,0.21213 1.42562,0.31605 1.42562,0.11444 z m -15.574787,-1.43159 c -0.3442,-0.0541 -0.7349,0.0106 -0.8682,0.14393 -0.14679,0.14679 0.10004,0.18562 0.62582,0.0984 0.73473,-0.1218 0.772,-0.15907 0.24238,-0.24238 z"
       id="path4677"
       sodipodi:nodetypes="sscsssssssscsssscsssscsscsssssssssssssssssscssssssssssssssssssssssssssssssssscssssscssssssssssssscsscsssssssssssscsssssscssssssscsssssssscssscsssssssscssssscccccscsssscsscssssscsssscsssssssssssscssssssscsccsssssssssscsssssssscscssssssssssssssssssssccsscssssssssssssssssssssssssssssssssssssssssscsscsscsscsssssscssssssccccsssssssssssssssssssssscsssscscscssssssssssssscsscssssssssssssssssssscssssssssssssscsssccsccsssssscssscsscssccsscscsscsccc"
       inkscape:export-filename="/media/pranay/Main Storage/Graphic Designing/stm/inkspace/g30233.png"
       inkscape:export-xdpi="991.01685"
       inkscape:export-ydpi="991.01685" />
  </g>
</svg>
